<svg width="35" height="35" viewBox="0 0 35 35" fill="none" xmlns="http://www.w3.org/2000/svg">
<path d="M0.191406 32.1281V2.8709C0.191406 2.16544 0.466047 1.48886 0.954911 0.990024C1.44378 0.491183 2.10682 0.210938 2.79817 0.210938L31.4702 0.210938C32.1616 0.210938 32.8246 0.491183 33.3135 0.990024C33.8023 1.48886 34.077 2.16544 34.077 2.8709V32.1281C34.077 32.8335 33.8023 33.5101 33.3135 34.009C32.8246 34.5078 32.1616 34.788 31.4702 34.788H23.6523V22.1798H25.5015C25.9233 22.1798 26.3277 22.0088 26.6259 21.7045C26.9242 21.4002 27.0917 20.9874 27.0917 20.5571V18.5121C27.0924 18.2988 27.0517 18.0875 26.972 17.8904C26.8923 17.6932 26.7752 17.5141 26.6274 17.3633C26.4796 17.2125 26.304 17.093 26.1108 17.0116C25.9176 16.9303 25.7105 16.8888 25.5015 16.8895H23.754V14.3876C23.754 12.1524 24.7463 12.1524 25.7363 12.1524H27.0118C27.2217 12.1605 27.4307 12.1221 27.6246 12.0398C27.8185 11.9575 27.9926 11.8333 28.1349 11.6757C28.2861 11.5278 28.4058 11.3498 28.4866 11.1526C28.5674 10.9554 28.6075 10.7434 28.6045 10.5297V8.56378C28.6175 8.1261 28.46 7.70098 28.1665 7.38156C27.873 7.06213 27.4673 6.87445 27.0385 6.85962H24.042C23.1673 6.82582 22.2958 6.98623 21.4878 7.32977C20.6797 7.67331 19.9545 8.19179 19.362 8.84937C18.7696 9.50695 18.3242 10.288 18.0566 11.1384C17.7889 11.9888 17.7055 12.8885 17.8119 13.775V16.887H16.1418C15.931 16.8837 15.7216 16.9233 15.5259 17.0033C15.3301 17.0834 15.1519 17.2024 15.0017 17.3534C14.8515 17.5044 14.7322 17.6844 14.6507 17.8829C14.5693 18.0814 14.5274 18.2945 14.5274 18.5096V20.5596C14.5277 20.7748 14.5699 20.9877 14.6517 21.1861C14.7334 21.3845 14.853 21.5643 15.0034 21.7151C15.1539 21.8658 15.3322 21.9846 15.5281 22.0643C15.7239 22.1441 15.9334 22.1834 16.1442 22.1798H17.8119V34.788H2.79817C2.10682 34.788 1.44378 34.5078 0.954911 34.009C0.466047 33.5101 0.191406 32.8335 0.191406 32.1281Z" fill="#1E1D1D"/>
</svg>
