<svg width="35" height="35" viewBox="0 0 35 35" fill="none" xmlns="http://www.w3.org/2000/svg">
<path d="M10.2718 0.333722C8.46883 0.420159 7.23766 0.714045 6.1632 1.14479C5.03328 1.58152 4.01 2.26382 3.16433 3.14437C2.3049 4.00962 1.64008 5.05516 1.21591 6.20856C0.7994 7.3092 0.515609 8.5683 0.436542 10.4065C0.357476 12.2448 0.339121 12.8383 0.347593 17.5333C0.356064 22.2282 0.377243 22.816 0.46478 24.66C0.550906 26.4997 0.837522 27.7559 1.25968 28.8536C1.69454 29.9903 2.27625 30.9526 3.21939 31.9121C4.06822 32.7893 5.09391 33.4677 6.22533 33.9001C7.30261 34.3251 8.53519 34.6147 10.3382 34.6954C12.1426 34.776 12.7229 34.7948 17.3229 34.7861C21.9228 34.7775 22.5017 34.7559 24.3075 34.668C26.1147 34.5815 27.3389 34.2862 28.4161 33.8569C29.5456 33.42 30.5683 32.7377 31.4136 31.8573C32.2734 30.9912 32.9382 29.9447 33.362 28.7903C33.7785 27.6911 34.0623 26.4334 34.14 24.5952C34.219 22.7512 34.2388 22.1605 34.2289 17.467C34.2205 12.7735 34.2007 12.1842 34.1146 10.3403C34.0298 8.49627 33.7418 7.24581 33.3183 6.14662C32.8905 4.99436 32.2223 3.95078 31.3599 3.08818C30.5115 2.2111 29.4863 1.53274 28.3554 1.10013C27.2767 0.676589 26.0456 0.385584 24.2412 0.307791C22.4382 0.225675 21.8579 0.204066 17.2565 0.21271C12.6551 0.221354 12.0791 0.242963 10.2718 0.333722ZM10.4695 31.5851C8.81757 31.513 7.92102 31.2321 7.32378 30.9973C6.58672 30.7225 5.91979 30.2818 5.37254 29.7079C4.80827 29.1519 4.37396 28.4734 4.10183 27.7228C3.86887 27.1134 3.58931 26.1986 3.51307 24.5131C3.42836 22.6921 3.41141 22.1447 3.40012 17.5289C3.39165 12.9132 3.40859 12.3672 3.48624 10.5448C3.55684 8.86074 3.83357 7.94451 4.0623 7.33513C4.36727 6.52694 4.73577 5.95213 5.32595 5.34419C5.87126 4.76826 6.53674 4.32511 7.27296 4.04764C7.87019 3.80993 8.76533 3.52757 10.4173 3.4469C12.2033 3.36046 12.7384 3.34317 17.2621 3.33165C21.7845 3.32301 22.321 3.34029 24.1098 3.42097C25.7589 3.493 26.6569 3.77248 27.2541 4.00874C28.0448 4.31991 28.6096 4.69303 29.2054 5.29809C29.8012 5.90315 30.1669 6.47508 30.4761 7.28327C30.7091 7.89121 30.9872 8.80456 31.0649 10.4915C31.1496 12.3139 31.1693 12.8613 31.1778 17.4756C31.1849 22.0899 31.1693 22.6374 31.0917 24.4598C31.0197 26.1453 30.7458 27.0601 30.5156 27.6723C30.2107 28.4791 29.8422 29.0553 29.2506 29.6604C28.7057 30.2361 28.0407 30.6793 27.305 30.9569C26.7092 31.1947 25.8112 31.4785 24.1621 31.5591C22.3746 31.6456 21.8395 31.6629 17.3144 31.6729C12.7892 31.683 12.257 31.6629 10.4695 31.5851ZM24.2821 8.26C24.2827 8.67036 24.4025 9.07133 24.6264 9.41219C24.8503 9.75305 25.1683 10.0185 25.5401 10.1749C25.9119 10.3314 26.3209 10.3718 26.7152 10.2911C27.1095 10.2104 27.4715 10.0121 27.7554 9.72146C28.0393 9.43079 28.2323 9.06074 28.31 8.65812C28.3878 8.2555 28.3467 7.83841 28.1921 7.45959C28.0375 7.08077 27.7762 6.75725 27.4414 6.52995C27.1066 6.30265 26.7132 6.18178 26.311 6.18263C25.772 6.18378 25.2555 6.40324 24.8751 6.79278C24.4946 7.18232 24.2813 7.71006 24.2821 8.26ZM8.59026 17.5174C8.59475 19.8716 9.5156 22.1275 11.1502 23.7889C12.7849 25.4503 14.9994 26.3811 17.3066 26.3765C19.6138 26.3719 21.8248 25.4323 23.4531 23.7644C25.0813 22.0966 25.9936 19.837 25.9891 17.4828C25.9558 15.1481 25.0223 12.9207 23.3909 11.2833C21.7594 9.64589 19.5614 8.73026 17.2729 8.73481C14.9845 8.73936 12.79 9.66371 11.1648 11.3076C9.53958 12.9515 8.61461 15.1826 8.59026 17.5174ZM11.6414 17.5117C11.6391 16.372 11.9682 15.2572 12.5869 14.3083C13.2056 13.3594 14.0862 12.619 15.1173 12.1807C16.1484 11.7425 17.2837 11.626 18.3797 11.8462C19.4756 12.0663 20.483 12.613 21.2744 13.4173C22.0658 14.2216 22.6057 15.2473 22.8258 16.3646C23.0459 17.482 22.9364 18.6409 22.511 19.6947C22.0856 20.7485 21.3635 21.65 20.436 22.285C19.5085 22.9201 18.4172 23.2603 17.3003 23.2626C16.5586 23.2641 15.8239 23.1166 15.1382 22.8284C14.4524 22.5402 13.829 22.117 13.3035 21.583C12.778 21.0489 12.3608 20.4145 12.0756 19.716C11.7904 19.0174 11.6429 18.2684 11.6414 17.5117Z" fill="#1E1D1D"/>
</svg>
