<svg width="26" height="26" viewBox="0 0 26 26" fill="none" xmlns="http://www.w3.org/2000/svg">
<path d="M7.75 25.5C7.0625 25.5 6.47396 25.2552 5.98438 24.7656C5.49479 24.276 5.25 23.6875 5.25 23C5.25 22.3125 5.49479 21.724 5.98438 21.2344C6.47396 20.7448 7.0625 20.5 7.75 20.5C8.4375 20.5 9.02604 20.7448 9.51562 21.2344C10.0052 21.724 10.25 22.3125 10.25 23C10.25 23.6875 10.0052 24.276 9.51562 24.7656C9.02604 25.2552 8.4375 25.5 7.75 25.5ZM20.25 25.5C19.5625 25.5 18.974 25.2552 18.4844 24.7656C17.9948 24.276 17.75 23.6875 17.75 23C17.75 22.3125 17.9948 21.724 18.4844 21.2344C18.974 20.7448 19.5625 20.5 20.25 20.5C20.9375 20.5 21.526 20.7448 22.0156 21.2344C22.5052 21.724 22.75 22.3125 22.75 23C22.75 23.6875 22.5052 24.276 22.0156 24.7656C21.526 25.2552 20.9375 25.5 20.25 25.5ZM11.6539 5.5C9.35276 5.5 7.84084 7.90279 8.8366 9.97728C9.35667 11.0608 10.452 11.75 11.6539 11.75H16.5898C17.7294 11.75 18.7787 11.1296 19.328 10.131C20.4734 8.04833 18.9667 5.5 16.5898 5.5H11.6539ZM4.90625 1.75C5.2689 2.51347 6.03863 3 6.88385 3H23.9375C24.4167 3 24.7812 3.21354 25.0312 3.64062C25.2813 4.06771 25.2917 4.5 25.0625 4.9375L20.625 12.9375C20.3958 13.3542 20.0885 13.6771 19.7031 13.9062C19.3177 14.1354 18.8958 14.25 18.4375 14.25H9.86409C9.40823 14.25 8.98851 14.4982 8.76882 14.8976C8.31063 15.7307 8.91333 16.75 9.86409 16.75H21.5C22.1904 16.75 22.75 17.3096 22.75 18C22.75 18.6904 22.1904 19.25 21.5 19.25H7.75C6.8125 19.25 6.10417 18.8385 5.625 18.0156C5.14583 17.1927 5.125 16.375 5.5625 15.5625L6.01514 14.741C6.79056 13.3338 6.84246 11.6396 6.15464 10.1876L3.16478 3.87565C2.91149 3.34092 2.37277 3 1.78108 3H1.5C0.809644 3 0.25 2.44036 0.25 1.75C0.25 1.05964 0.809644 0.5 1.5 0.5H2.92865C3.77387 0.5 4.5436 0.98653 4.90625 1.75Z" fill="white"/>
</svg>
