<svg width="31" height="31" viewBox="0 0 31 31" fill="none" xmlns="http://www.w3.org/2000/svg">
<g clip-path="url(#clip0_3499_2167)">
<path d="M0 23.2509C0 24.1644 0.362896 25.0405 1.00885 25.6865C1.65481 26.3324 2.53092 26.6953 3.44444 26.6953H27.5556C28.4691 26.6953 29.3452 26.3324 29.9911 25.6865C30.6371 25.0405 31 24.1644 31 23.2509V18.9453H0V23.2509Z" fill="#138808"/>
<path d="M31 12.0547V7.74913C31 6.83561 30.6371 5.9595 29.9911 5.31354C29.3452 4.66758 28.4691 4.30469 27.5556 4.30469H3.44444C2.53092 4.30469 1.65481 4.66758 1.00885 5.31354C0.362896 5.9595 0 6.83561 0 7.74913L0 12.0547H31Z" fill="#FF9933"/>
<path d="M0 11.7695H31V19.2328H0V11.7695Z" fill="#F7F7F7"/>
<path d="M15.4991 18.9436C17.4014 18.9436 18.9436 17.4014 18.9436 15.4991C18.9436 13.5968 17.4014 12.0547 15.4991 12.0547C13.5968 12.0547 12.0547 13.5968 12.0547 15.4991C12.0547 17.4014 13.5968 18.9436 15.4991 18.9436Z" fill="#000080"/>
<path d="M15.5 18.4062C17.1051 18.4062 18.4062 17.1051 18.4062 15.5C18.4062 13.8949 17.1051 12.5938 15.5 12.5938C13.8949 12.5938 12.5938 13.8949 12.5938 15.5C12.5938 17.1051 13.8949 18.4062 15.5 18.4062Z" fill="#F7F7F7"/>
<path d="M15.5858 14.4233L15.4997 14.983L15.4136 14.4233L15.4997 12.7441L15.5858 14.4233ZM14.7867 12.838L15.138 14.4819L15.3662 15.0003L15.3042 14.4379L14.7867 12.838ZM14.1219 13.1136L14.8866 14.6102L15.2414 15.0519L15.0364 14.5241L14.1219 13.1136ZM13.551 13.551L14.6773 14.7996L15.1346 15.1346L14.7996 14.6773L13.551 13.551ZM13.1136 14.1219L14.5241 15.0364L15.0519 15.2414L14.6102 14.8866L13.1136 14.1219ZM12.838 14.7867L14.4379 15.3042L15.0003 15.3662L14.4819 15.138L12.838 14.7867ZM12.7441 15.4997L14.4233 15.5858L14.983 15.4997L14.4233 15.4136L12.7441 15.4997ZM12.838 16.2127L14.4819 15.8614L15.0003 15.6332L14.4379 15.6952L12.838 16.2127ZM13.1136 16.8775L14.6102 16.1128L15.0519 15.758L14.5241 15.963L13.1136 16.8775ZM13.551 17.4484L14.7996 16.3221L15.1346 15.8648L14.6773 16.1998L13.551 17.4484ZM14.1219 17.8858L15.0364 16.4753L15.2414 15.9475L14.8866 16.3892L14.1219 17.8858ZM14.7867 18.1614L15.3042 16.5614L15.3662 15.9991L15.138 16.5175L14.7867 18.1614ZM15.4997 18.2553L15.5858 16.5761L15.4997 16.0164L15.4136 16.5761L15.4997 18.2553ZM16.2127 18.1614L15.8614 16.5175L15.6332 15.9991L15.6952 16.5614L16.2127 18.1614ZM16.8775 17.8858L16.1128 16.3892L15.758 15.9475L15.963 16.4753L16.8775 17.8858ZM17.4484 17.4484L16.3221 16.1998L15.8648 15.8648L16.1998 16.3221L17.4484 17.4484ZM17.8858 16.8775L16.4753 15.963L15.9475 15.758L16.3892 16.1128L17.8858 16.8775ZM18.1614 16.2127L16.5614 15.6952L15.9991 15.6332L16.5175 15.8614L18.1614 16.2127ZM18.2553 15.4997L16.5761 15.4136L16.0164 15.4997L16.5761 15.5858L18.2553 15.4997ZM18.1614 14.7867L16.5175 15.138L15.9991 15.3662L16.5614 15.3042L18.1614 14.7867ZM17.8858 14.1219L16.3892 14.8866L15.9475 15.2414L16.4753 15.0364L17.8858 14.1219ZM17.4484 13.551L16.1998 14.6773L15.8648 15.1346L16.3221 14.7996L17.4484 13.551ZM16.8775 13.1136L15.963 14.5241L15.758 15.0519L16.1128 14.6102L16.8775 13.1136ZM16.2127 12.838L15.6952 14.4379L15.6332 15.0003L15.8614 14.4819L16.2127 12.838Z" fill="#6666B3"/>
<path d="M15.1214 12.7956C15.2166 12.7956 15.2937 12.7185 15.2937 12.6234C15.2937 12.5283 15.2166 12.4512 15.1214 12.4512C15.0263 12.4512 14.9492 12.5283 14.9492 12.6234C14.9492 12.7185 15.0263 12.7956 15.1214 12.7956Z" fill="#000080"/>
<path d="M14.389 12.9929C14.4841 12.9929 14.5612 12.9158 14.5612 12.8207C14.5612 12.7255 14.4841 12.6484 14.389 12.6484C14.2939 12.6484 14.2168 12.7255 14.2168 12.8207C14.2168 12.9158 14.2939 12.9929 14.389 12.9929Z" fill="#000080"/>
<path d="M13.7328 13.3698C13.8279 13.3698 13.905 13.2927 13.905 13.1976C13.905 13.1025 13.8279 13.0254 13.7328 13.0254C13.6377 13.0254 13.5605 13.1025 13.5605 13.1976C13.5605 13.2927 13.6377 13.3698 13.7328 13.3698Z" fill="#000080"/>
<path d="M13.1976 13.905C13.2927 13.905 13.3698 13.8279 13.3698 13.7328C13.3698 13.6377 13.2927 13.5605 13.1976 13.5605C13.1025 13.5605 13.0254 13.6377 13.0254 13.7328C13.0254 13.8279 13.1025 13.905 13.1976 13.905Z" fill="#000080"/>
<path d="M12.8207 14.5612C12.9158 14.5612 12.9929 14.4841 12.9929 14.389C12.9929 14.2939 12.9158 14.2168 12.8207 14.2168C12.7255 14.2168 12.6484 14.2939 12.6484 14.389C12.6484 14.4841 12.7255 14.5612 12.8207 14.5612Z" fill="#000080"/>
<path d="M12.6234 15.2937C12.7185 15.2937 12.7956 15.2166 12.7956 15.1214C12.7956 15.0263 12.7185 14.9492 12.6234 14.9492C12.5283 14.9492 12.4512 15.0263 12.4512 15.1214C12.4512 15.2166 12.5283 15.2937 12.6234 15.2937Z" fill="#000080"/>
<path d="M12.6234 16.0515C12.7185 16.0515 12.7956 15.9744 12.7956 15.8793C12.7956 15.7841 12.7185 15.707 12.6234 15.707C12.5283 15.707 12.4512 15.7841 12.4512 15.8793C12.4512 15.9744 12.5283 16.0515 12.6234 16.0515Z" fill="#000080"/>
<path d="M12.8207 16.7839C12.9158 16.7839 12.9929 16.7068 12.9929 16.6117C12.9929 16.5166 12.9158 16.4395 12.8207 16.4395C12.7255 16.4395 12.6484 16.5166 12.6484 16.6117C12.6484 16.7068 12.7255 16.7839 12.8207 16.7839Z" fill="#000080"/>
<path d="M13.1976 17.4401C13.2927 17.4401 13.3698 17.363 13.3698 17.2679C13.3698 17.1728 13.2927 17.0957 13.1976 17.0957C13.1025 17.0957 13.0254 17.1728 13.0254 17.2679C13.0254 17.363 13.1025 17.4401 13.1976 17.4401Z" fill="#000080"/>
<path d="M13.7328 17.9753C13.8279 17.9753 13.905 17.8982 13.905 17.8031C13.905 17.708 13.8279 17.6309 13.7328 17.6309C13.6377 17.6309 13.5605 17.708 13.5605 17.8031C13.5605 17.8982 13.6377 17.9753 13.7328 17.9753Z" fill="#000080"/>
<path d="M14.389 18.3523C14.4841 18.3523 14.5612 18.2752 14.5612 18.18C14.5612 18.0849 14.4841 18.0078 14.389 18.0078C14.2939 18.0078 14.2168 18.0849 14.2168 18.18C14.2168 18.2752 14.2939 18.3523 14.389 18.3523Z" fill="#000080"/>
<path d="M15.1214 18.5495C15.2166 18.5495 15.2937 18.4724 15.2937 18.3773C15.2937 18.2822 15.2166 18.2051 15.1214 18.2051C15.0263 18.2051 14.9492 18.2822 14.9492 18.3773C14.9492 18.4724 15.0263 18.5495 15.1214 18.5495Z" fill="#000080"/>
<path d="M15.8793 18.5495C15.9744 18.5495 16.0515 18.4724 16.0515 18.3773C16.0515 18.2822 15.9744 18.2051 15.8793 18.2051C15.7841 18.2051 15.707 18.2822 15.707 18.3773C15.707 18.4724 15.7841 18.5495 15.8793 18.5495Z" fill="#000080"/>
<path d="M16.6117 18.3523C16.7068 18.3523 16.7839 18.2752 16.7839 18.18C16.7839 18.0849 16.7068 18.0078 16.6117 18.0078C16.5166 18.0078 16.4395 18.0849 16.4395 18.18C16.4395 18.2752 16.5166 18.3523 16.6117 18.3523Z" fill="#000080"/>
<path d="M17.2679 17.9753C17.363 17.9753 17.4401 17.8982 17.4401 17.8031C17.4401 17.708 17.363 17.6309 17.2679 17.6309C17.1728 17.6309 17.0957 17.708 17.0957 17.8031C17.0957 17.8982 17.1728 17.9753 17.2679 17.9753Z" fill="#000080"/>
<path d="M17.8031 17.4401C17.8982 17.4401 17.9753 17.363 17.9753 17.2679C17.9753 17.1728 17.8982 17.0957 17.8031 17.0957C17.708 17.0957 17.6309 17.1728 17.6309 17.2679C17.6309 17.363 17.708 17.4401 17.8031 17.4401Z" fill="#000080"/>
<path d="M18.18 16.7839C18.2752 16.7839 18.3523 16.7068 18.3523 16.6117C18.3523 16.5166 18.2752 16.4395 18.18 16.4395C18.0849 16.4395 18.0078 16.5166 18.0078 16.6117C18.0078 16.7068 18.0849 16.7839 18.18 16.7839Z" fill="#000080"/>
<path d="M18.3773 16.0515C18.4724 16.0515 18.5495 15.9744 18.5495 15.8793C18.5495 15.7841 18.4724 15.707 18.3773 15.707C18.2822 15.707 18.2051 15.7841 18.2051 15.8793C18.2051 15.9744 18.2822 16.0515 18.3773 16.0515Z" fill="#000080"/>
<path d="M18.3773 15.2937C18.4724 15.2937 18.5495 15.2166 18.5495 15.1214C18.5495 15.0263 18.4724 14.9492 18.3773 14.9492C18.2822 14.9492 18.2051 15.0263 18.2051 15.1214C18.2051 15.2166 18.2822 15.2937 18.3773 15.2937Z" fill="#000080"/>
<path d="M18.18 14.5612C18.2752 14.5612 18.3523 14.4841 18.3523 14.389C18.3523 14.2939 18.2752 14.2168 18.18 14.2168C18.0849 14.2168 18.0078 14.2939 18.0078 14.389C18.0078 14.4841 18.0849 14.5612 18.18 14.5612Z" fill="#000080"/>
<path d="M17.8031 13.905C17.8982 13.905 17.9753 13.8279 17.9753 13.7328C17.9753 13.6377 17.8982 13.5605 17.8031 13.5605C17.708 13.5605 17.6309 13.6377 17.6309 13.7328C17.6309 13.8279 17.708 13.905 17.8031 13.905Z" fill="#000080"/>
<path d="M17.2679 13.3698C17.363 13.3698 17.4401 13.2927 17.4401 13.1976C17.4401 13.1025 17.363 13.0254 17.2679 13.0254C17.1728 13.0254 17.0957 13.1025 17.0957 13.1976C17.0957 13.2927 17.1728 13.3698 17.2679 13.3698Z" fill="#000080"/>
<path d="M16.6117 12.9929C16.7068 12.9929 16.7839 12.9158 16.7839 12.8207C16.7839 12.7255 16.7068 12.6484 16.6117 12.6484C16.5166 12.6484 16.4395 12.7255 16.4395 12.8207C16.4395 12.9158 16.5166 12.9929 16.6117 12.9929Z" fill="#000080"/>
<path d="M15.8793 12.7956C15.9744 12.7956 16.0515 12.7185 16.0515 12.6234C16.0515 12.5283 15.9744 12.4512 15.8793 12.4512C15.7841 12.4512 15.707 12.5283 15.707 12.6234C15.707 12.7185 15.7841 12.7956 15.8793 12.7956Z" fill="#000080"/>
<path d="M15.4996 16.2746C15.9276 16.2746 16.2746 15.9276 16.2746 15.4996C16.2746 15.0716 15.9276 14.7246 15.4996 14.7246C15.0716 14.7246 14.7246 15.0716 14.7246 15.4996C14.7246 15.9276 15.0716 16.2746 15.4996 16.2746Z" fill="#000080"/>
</g>
<defs>
<clipPath id="clip0_3499_2167">
<rect width="31" height="31" fill="white"/>
</clipPath>
</defs>
</svg>
